<svg xmlns="http://www.w3.org/2000/svg" version="1.1"
     width="1920" height="1080" preserveAspectRatio="none" viewBox="0 0 1920 1080">
    <g mask="url(&quot;#SvgjsMask1022&quot;)" fill="none">
        <path d="M1139.96 1288.08C1287.7 1227.77 1224.73 774.29 1515.56 771.99 1806.39 769.69 2070.6 996.34 2266.76 998.79"
              stroke="rgba(45, 69, 101, 0.61)" stroke-width="2"></path>
        <path d="M40.28 1144.09C233.67 1120.72 345.17 688.34 670.45 685.78 995.73 683.22 985.53 820.78 1300.62 820.78 1615.7 820.78 1769.67 686.53 1930.79 685.78"
              stroke="rgba(45, 69, 101, 0.61)" stroke-width="2"></path>
        <path d="M625.24 1202.16C809.23 1133.87 681.82 616.99 1104.85 580.7 1527.88 544.41 1814.23 302.77 2064.08 299.9"
              stroke="rgba(45, 69, 101, 0.61)" stroke-width="2"></path>
        <path d="M649.33 1121.41C913.89 1067.46 1033.87 387.75 1439.64 385.32 1845.41 382.89 2012.27 743.7 2229.95 752.52"
              stroke="rgba(45, 69, 101, 0.61)" stroke-width="2"></path>
        <path d="M499.48 1235.88C778.34 1169.9 891.98 425.97 1307.82 423.19 1723.65 420.41 1888.61 832.01 2116.15 844.39"
              stroke="rgba(45, 69, 101, 0.61)" stroke-width="2"></path>
    </g>
    <defs>
        <mask id="SvgjsMask1022">
            <rect width="1920" height="1080" fill="#ffffff"></rect>
        </mask>
    </defs>
</svg>
